<?xml version="1.0" encoding="UTF-8" standalone="no"?>
<!DOCTYPE svg PUBLIC "-//W3C//DTD SVG 1.1//EN"
 "http://www.w3.org/Graphics/SVG/1.1/DTD/svg11.dtd">
<!-- Generated by graphviz version 2.43.0 (0)
 -->
<!-- Title: sourcetree Pages: 1 -->
<svg width="842pt" height="332pt"
 viewBox="0.00 0.00 841.50 332.00" xmlns="http://www.w3.org/2000/svg" xmlns:xlink="http://www.w3.org/1999/xlink">
<g id="graph0" class="graph" transform="scale(1 1) rotate(0) translate(4 328)">
<title>sourcetree</title>
<polygon fill="white" stroke="transparent" points="-4,4 -4,-328 837.5,-328 837.5,4 -4,4"/>
<!-- MulleObjCHTTPFoundation -->
<g id="node1" class="node">
<title>MulleObjCHTTPFoundation</title>
<polygon fill="yellow" stroke="black" points="383,-324 170,-324 170,-288 383,-288 383,-324"/>
<text text-anchor="middle" x="276.5" y="-302.3" font-family="Times,serif" font-size="14.00">MulleObjCHTTPFoundation</text>
</g>
<!-- mulle&#45;http -->
<g id="node2" class="node">
<title>mulle&#45;http</title>
<polygon fill="lightgrey" stroke="black" points="240,-252 149,-252 149,-216 240,-216 240,-252"/>
<text text-anchor="middle" x="194.5" y="-230.3" font-family="Times,serif" font-size="14.00">mulle&#45;http</text>
</g>
<!-- MulleObjCHTTPFoundation&#45;&gt;mulle&#45;http -->
<g id="edge2" class="edge">
<title>MulleObjCHTTPFoundation&#45;&gt;mulle&#45;http</title>
<path fill="none" stroke="black" d="M256.23,-287.7C246,-278.97 233.44,-268.24 222.32,-258.75"/>
<polygon fill="black" stroke="black" points="224.41,-255.94 214.54,-252.1 219.87,-261.26 224.41,-255.94"/>
</g>
<!-- MulleObjCInetFoundation -->
<g id="node4" class="node">
<title>MulleObjCInetFoundation</title>
<polygon fill="lightgrey" stroke="black" points="459,-252 258,-252 258,-216 459,-216 459,-252"/>
<text text-anchor="middle" x="358.5" y="-230.3" font-family="Times,serif" font-size="14.00">MulleObjCInetFoundation</text>
</g>
<!-- MulleObjCHTTPFoundation&#45;&gt;MulleObjCInetFoundation -->
<g id="edge3" class="edge">
<title>MulleObjCHTTPFoundation&#45;&gt;MulleObjCInetFoundation</title>
<path fill="none" stroke="black" d="M296.77,-287.7C307,-278.97 319.56,-268.24 330.68,-258.75"/>
<polygon fill="black" stroke="black" points="333.13,-261.26 338.46,-252.1 328.59,-255.94 333.13,-261.26"/>
</g>
<!-- mulle&#45;c11 -->
<g id="node3" class="node">
<title>mulle&#45;c11</title>
<polygon fill="lightgrey" stroke="black" points="117.5,-180 31.5,-180 31.5,-144 117.5,-144 117.5,-180"/>
<text text-anchor="middle" x="74.5" y="-158.3" font-family="Times,serif" font-size="14.00">mulle&#45;c11</text>
</g>
<!-- mulle&#45;http&#45;&gt;mulle&#45;c11 -->
<g id="edge1" class="edge">
<title>mulle&#45;http&#45;&gt;mulle&#45;c11</title>
<path fill="none" stroke="black" d="M165.14,-215.88C149.45,-206.72 129.94,-195.34 113.05,-185.48"/>
<polygon fill="black" stroke="black" points="114.37,-182.21 103.97,-180.19 110.84,-188.25 114.37,-182.21"/>
</g>
<!-- MulleObjCLockFoundation -->
<g id="node5" class="node">
<title>MulleObjCLockFoundation</title>
<polygon fill="lightgrey" stroke="black" points="341.5,-180 135.5,-180 135.5,-144 341.5,-144 341.5,-180"/>
<text text-anchor="middle" x="238.5" y="-158.3" font-family="Times,serif" font-size="14.00">MulleObjCLockFoundation</text>
</g>
<!-- MulleObjCInetFoundation&#45;&gt;MulleObjCLockFoundation -->
<g id="edge4" class="edge">
<title>MulleObjCInetFoundation&#45;&gt;MulleObjCLockFoundation</title>
<path fill="none" stroke="black" d="M329.14,-215.88C313.45,-206.72 293.94,-195.34 277.05,-185.48"/>
<polygon fill="black" stroke="black" points="278.37,-182.21 267.97,-180.19 274.84,-188.25 278.37,-182.21"/>
</g>
<!-- MulleObjCStandardFoundation -->
<g id="node6" class="node">
<title>MulleObjCStandardFoundation</title>
<polygon fill="lightgrey" stroke="black" points="599,-180 360,-180 360,-144 599,-144 599,-180"/>
<text text-anchor="middle" x="479.5" y="-158.3" font-family="Times,serif" font-size="14.00">MulleObjCStandardFoundation</text>
</g>
<!-- MulleObjCInetFoundation&#45;&gt;MulleObjCStandardFoundation -->
<g id="edge5" class="edge">
<title>MulleObjCInetFoundation&#45;&gt;MulleObjCStandardFoundation</title>
<path fill="none" stroke="black" d="M388.1,-215.88C404.07,-206.64 423.96,-195.13 441.11,-185.21"/>
<polygon fill="black" stroke="black" points="442.88,-188.23 449.79,-180.19 439.38,-182.17 442.88,-188.23"/>
</g>
<!-- mulle&#45;url -->
<g id="node7" class="node">
<title>mulle&#45;url</title>
<polygon fill="lightgrey" stroke="black" points="698,-180 617,-180 617,-144 698,-144 698,-180"/>
<text text-anchor="middle" x="657.5" y="-158.3" font-family="Times,serif" font-size="14.00">mulle&#45;url</text>
</g>
<!-- MulleObjCInetFoundation&#45;&gt;mulle&#45;url -->
<g id="edge6" class="edge">
<title>MulleObjCInetFoundation&#45;&gt;mulle&#45;url</title>
<path fill="none" stroke="black" d="M452.37,-215.99C496.97,-207.21 551.12,-195.57 607.23,-180.2"/>
<polygon fill="black" stroke="black" points="608.28,-183.54 616.98,-177.5 606.41,-176.79 608.28,-183.54"/>
</g>
<!-- MulleObjCContainerFoundation -->
<g id="node8" class="node">
<title>MulleObjCContainerFoundation</title>
<polygon fill="lightgrey" stroke="black" points="243,-108 0,-108 0,-72 243,-72 243,-108"/>
<text text-anchor="middle" x="121.5" y="-86.3" font-family="Times,serif" font-size="14.00">MulleObjCContainerFoundation</text>
</g>
<!-- MulleObjCStandardFoundation&#45;&gt;MulleObjCContainerFoundation -->
<g id="edge7" class="edge">
<title>MulleObjCStandardFoundation&#45;&gt;MulleObjCContainerFoundation</title>
<path fill="none" stroke="black" d="M392.38,-143.97C339.87,-133.7 272.89,-120.6 218.67,-110"/>
<polygon fill="black" stroke="black" points="219.18,-106.53 208.7,-108.05 217.84,-113.4 219.18,-106.53"/>
</g>
<!-- MulleObjCTimeFoundation -->
<g id="node9" class="node">
<title>MulleObjCTimeFoundation</title>
<polygon fill="lightgrey" stroke="black" points="469.5,-108 261.5,-108 261.5,-72 469.5,-72 469.5,-108"/>
<text text-anchor="middle" x="365.5" y="-86.3" font-family="Times,serif" font-size="14.00">MulleObjCTimeFoundation</text>
</g>
<!-- MulleObjCStandardFoundation&#45;&gt;MulleObjCTimeFoundation -->
<g id="edge8" class="edge">
<title>MulleObjCStandardFoundation&#45;&gt;MulleObjCTimeFoundation</title>
<path fill="none" stroke="black" d="M451.61,-143.88C436.71,-134.72 418.17,-123.34 402.12,-113.48"/>
<polygon fill="black" stroke="black" points="403.85,-110.44 393.49,-108.19 400.19,-116.41 403.85,-110.44"/>
</g>
<!-- MulleObjCValueFoundation -->
<g id="node10" class="node">
<title>MulleObjCValueFoundation</title>
<polygon fill="lightgrey" stroke="black" points="699.5,-108 487.5,-108 487.5,-72 699.5,-72 699.5,-108"/>
<text text-anchor="middle" x="593.5" y="-86.3" font-family="Times,serif" font-size="14.00">MulleObjCValueFoundation</text>
</g>
<!-- MulleObjCStandardFoundation&#45;&gt;MulleObjCValueFoundation -->
<g id="edge9" class="edge">
<title>MulleObjCStandardFoundation&#45;&gt;MulleObjCValueFoundation</title>
<path fill="none" stroke="black" d="M507.39,-143.88C522.29,-134.72 540.83,-123.34 556.88,-113.48"/>
<polygon fill="black" stroke="black" points="558.81,-116.41 565.51,-108.19 555.15,-110.44 558.81,-116.41"/>
</g>
<!-- mulle&#45;unicode -->
<g id="node11" class="node">
<title>mulle&#45;unicode</title>
<polygon fill="lightgrey" stroke="black" points="833.5,-108 717.5,-108 717.5,-72 833.5,-72 833.5,-108"/>
<text text-anchor="middle" x="775.5" y="-86.3" font-family="Times,serif" font-size="14.00">mulle&#45;unicode</text>
</g>
<!-- MulleObjCStandardFoundation&#45;&gt;mulle&#45;unicode -->
<g id="edge10" class="edge">
<title>MulleObjCStandardFoundation&#45;&gt;mulle&#45;unicode</title>
<path fill="none" stroke="black" d="M554.89,-143.97C597.15,-134.33 651.06,-121.86 707.58,-108.2"/>
<polygon fill="black" stroke="black" points="708.52,-111.57 717.41,-105.82 706.87,-104.77 708.52,-111.57"/>
</g>
<!-- MulleObjC -->
<g id="node12" class="node">
<title>MulleObjC</title>
<polygon fill="lightgrey" stroke="black" points="355.5,-36 263.5,-36 263.5,0 355.5,0 355.5,-36"/>
<text text-anchor="middle" x="309.5" y="-14.3" font-family="Times,serif" font-size="14.00">MulleObjC</text>
</g>
<!-- MulleObjCTimeFoundation&#45;&gt;MulleObjC -->
<g id="edge11" class="edge">
<title>MulleObjCTimeFoundation&#45;&gt;MulleObjC</title>
<path fill="none" stroke="black" d="M351.66,-71.7C345.01,-63.39 336.92,-53.28 329.61,-44.14"/>
<polygon fill="black" stroke="black" points="332.16,-41.73 323.18,-36.1 326.7,-46.1 332.16,-41.73"/>
</g>
<!-- mulle&#45;time -->
<g id="node13" class="node">
<title>mulle&#45;time</title>
<polygon fill="lightgrey" stroke="black" points="467,-36 374,-36 374,0 467,0 467,-36"/>
<text text-anchor="middle" x="420.5" y="-14.3" font-family="Times,serif" font-size="14.00">mulle&#45;time</text>
</g>
<!-- MulleObjCTimeFoundation&#45;&gt;mulle&#45;time -->
<g id="edge12" class="edge">
<title>MulleObjCTimeFoundation&#45;&gt;mulle&#45;time</title>
<path fill="none" stroke="black" d="M379.1,-71.7C385.62,-63.39 393.57,-53.28 400.75,-44.14"/>
<polygon fill="black" stroke="black" points="403.63,-46.13 407.06,-36.1 398.13,-41.81 403.63,-46.13"/>
</g>
</g>
</svg>
